<svg width="13" height="14" viewBox="0 0 13 14" fill="none" xmlns="http://www.w3.org/2000/svg">
<path fill-rule="evenodd" clip-rule="evenodd" d="M3.71571 1.88178C4.45413 1.14336 5.45565 0.728516 6.49994 0.728516C7.54423 0.728516 8.54575 1.14336 9.28417 1.88178C10.0226 2.62021 10.4374 3.62173 10.4374 4.66602C10.4374 5.93244 10.6358 6.73329 10.9037 7.30042C11.1721 7.86853 11.5241 8.23526 11.9123 8.63547L11.9219 8.64566C12.055 8.79199 12.1428 8.97385 12.1745 9.16913C12.2062 9.36442 12.1804 9.5647 12.1004 9.74562C12.0204 9.92655 11.8895 10.0803 11.7237 10.1882C11.5579 10.2961 11.3644 10.3536 11.1666 10.3535C11.1666 10.3535 11.1667 10.3535 11.1666 10.3535H1.83327C1.63541 10.3534 1.44154 10.2957 1.27584 10.1876C1.11014 10.0795 0.979429 9.92553 0.899612 9.74448C0.819796 9.56344 0.794314 9.3631 0.826264 9.16784C0.858215 8.97258 0.946222 8.79081 1.07958 8.64464L1.08852 8.63513C1.47601 8.23508 1.82768 7.8685 2.09606 7.30036C2.36395 6.73326 2.56244 5.93239 2.56244 4.66602C2.56244 3.62173 2.97728 2.62021 3.71571 1.88178ZM6.49994 1.60352C5.68772 1.60352 4.90876 1.92617 4.33443 2.5005C3.7601 3.07483 3.43744 3.85379 3.43744 4.66602C3.43744 6.02406 3.22439 6.96035 2.88722 7.6741C2.55365 8.38024 2.11187 8.83629 1.72776 9.23282L1.72309 9.23765C1.70565 9.25794 1.69411 9.28267 1.68978 9.30913C1.68522 9.33703 1.68886 9.36565 1.70026 9.39151C1.71166 9.41737 1.73033 9.43937 1.75401 9.45481C1.77768 9.47026 1.80533 9.4785 1.83359 9.47852H11.1666C11.1949 9.47853 11.2227 9.47032 11.2464 9.45491C11.2701 9.43949 11.2888 9.41752 11.3002 9.39167C11.3116 9.36583 11.3153 9.33721 11.3108 9.30932C11.3065 9.28296 11.2951 9.25831 11.2778 9.23803L11.275 9.23522C10.8896 8.83791 10.4467 8.38144 10.1126 7.6742C9.77533 6.96033 9.56244 6.024 9.56244 4.66602C9.56244 3.85379 9.23979 3.07483 8.66545 2.5005C8.09113 1.92617 7.31217 1.60352 6.49994 1.60352ZM5.27084 11.8705C5.48008 11.7497 5.74766 11.8213 5.86848 12.0306C5.93248 12.1414 6.02453 12.2335 6.13537 12.2975C6.24622 12.3614 6.37195 12.3951 6.49994 12.3951C6.62793 12.3951 6.75366 12.3614 6.86451 12.2975C6.97535 12.2335 7.0674 12.1414 7.1314 12.0306C7.25222 11.8213 7.5198 11.7497 7.72904 11.8705C7.93829 11.9913 8.00997 12.2589 7.88915 12.4681C7.74835 12.712 7.54585 12.9145 7.30199 13.0552C7.05813 13.196 6.78152 13.2701 6.49994 13.2701C6.21836 13.2701 5.94175 13.196 5.69789 13.0552C5.45404 12.9145 5.25153 12.712 5.11073 12.4681C4.98991 12.2589 5.06159 11.9913 5.27084 11.8705Z" fill="black"/>
</svg>
