<svg width="9" height="14" viewBox="0 0 9 14" fill="none" xmlns="http://www.w3.org/2000/svg">
<path fill-rule="evenodd" clip-rule="evenodd" d="M0.637563 1.38756C0.965752 1.05937 1.41087 0.875 1.875 0.875H7.125C7.58913 0.875 8.03425 1.05937 8.36244 1.38756C8.69063 1.71575 8.875 2.16087 8.875 2.625V12.6875C8.875 12.8598 8.77389 13.016 8.61672 13.0866C8.45956 13.1572 8.27561 13.129 8.14684 13.0145L4.5 9.77286L0.853159 13.0145C0.724392 13.129 0.54044 13.1572 0.383275 13.0866C0.226111 13.016 0.125 12.8598 0.125 12.6875V2.625C0.125 2.16087 0.309375 1.71575 0.637563 1.38756ZM1.875 1.75C1.64294 1.75 1.42038 1.84219 1.25628 2.00628C1.09219 2.17038 1 2.39294 1 2.625V11.7133L4.20934 8.86051C4.3751 8.71316 4.6249 8.71316 4.79066 8.86051L8 11.7133V2.625C8 2.39294 7.90781 2.17038 7.74372 2.00628C7.57962 1.84219 7.35706 1.75 7.125 1.75H1.875Z" fill="black"/>
</svg>
