<svg width="16" height="15" viewBox="0 0 16 15" fill="none" xmlns="http://www.w3.org/2000/svg">
<path d="M4.41006 14.2865C4.27405 14.2865 4.14361 14.2324 4.04744 14.1363C3.95127 14.0401 3.89724 13.9096 3.89724 13.7736V11.7224H3.12801C2.51619 11.7216 1.92964 11.4783 1.49702 11.0456C1.0644 10.613 0.821036 10.0265 0.820312 9.41466V3.26082C0.821036 2.649 1.0644 2.06245 1.49702 1.62983C1.92964 1.19721 2.51619 0.953849 3.12801 0.953125H12.8716C13.4834 0.953849 14.07 1.19721 14.5026 1.62983C14.9352 2.06245 15.1786 2.649 15.1793 3.26082V9.41466C15.1786 10.0265 14.9352 10.613 14.5026 11.0456C14.07 11.4783 13.4834 11.7216 12.8716 11.7224H7.67091L4.73826 14.1675C4.64608 14.2442 4.52999 14.2863 4.41006 14.2865Z" fill="#BFBFBF"/>
</svg>
