<svg width="13" height="13" viewBox="0 0 13 13" fill="none" xmlns="http://www.w3.org/2000/svg">
<path d="M3.55899 12.0729C3.43999 12.0729 3.32585 12.0256 3.2417 11.9415C3.15755 11.8573 3.11028 11.7432 3.11028 11.6242V9.82933H2.4372C1.90186 9.82869 1.38863 9.61575 1.01009 9.23721C0.631545 8.85867 0.418602 8.34543 0.417969 7.8101V2.42548C0.418602 1.89014 0.631545 1.37691 1.01009 0.998369C1.38863 0.619827 1.90186 0.406883 2.4372 0.40625H10.9628C11.4982 0.406883 12.0114 0.619827 12.39 0.998369C12.7685 1.37691 12.9814 1.89014 12.9821 2.42548V7.8101C12.9814 8.34543 12.7685 8.85867 12.39 9.23721C12.0114 9.61575 11.4982 9.82869 10.9628 9.82933H6.41224L3.84617 11.9688C3.76552 12.0359 3.66393 12.0728 3.55899 12.0729Z" fill="white"/>
</svg>
