<svg width="15" height="14" viewBox="0 0 15 14" fill="none" xmlns="http://www.w3.org/2000/svg">
<path d="M7.5 0C3.63438 0 0.5 3.13438 0.5 7C0.5 10.8656 3.63438 14 7.5 14C11.3656 14 14.5 10.8656 14.5 7C14.5 3.13438 11.3656 0 7.5 0ZM7.5 12.8125C4.29063 12.8125 1.6875 10.2094 1.6875 7C1.6875 3.79063 4.29063 1.1875 7.5 1.1875C10.7094 1.1875 13.3125 3.79063 13.3125 7C13.3125 10.2094 10.7094 12.8125 7.5 12.8125ZM10.6 3.62344C10.5388 3.59953 10.4735 3.58791 10.4078 3.58925C10.3421 3.59059 10.2774 3.60486 10.2172 3.63125L5.98281 5.48438L4.13125 9.71875C4.075 9.84688 4.075 9.99219 4.13125 10.1203C4.18437 10.2422 4.28281 10.3375 4.40781 10.3859C4.46719 10.4094 4.52812 10.4203 4.59062 10.4203C4.65937 10.4203 4.72656 10.4062 4.79063 10.3781L9.025 8.525L10.8766 4.29063C10.9036 4.22883 10.9178 4.16221 10.9185 4.09477C10.9191 4.02733 10.9061 3.96046 10.8803 3.89815C10.8545 3.83585 10.8164 3.7794 10.7682 3.7322C10.72 3.68499 10.6628 3.648 10.6 3.62344ZM8.5125 7.35L8.92188 7.75937L8.25937 8.42188L7.85 8.0125L5.4375 9.06875L6.49219 6.65625L6.09375 6.25625L6.75625 5.59375L7.15469 5.99219L9.56875 4.9375L8.5125 7.35ZM6.75625 5.59375L6.09375 6.25625L6.49219 6.65625L7.85 8.0125L8.25937 8.42188L8.92188 7.75937L8.5125 7.35L7.15625 5.99219L6.75625 5.59375Z" fill="#1890FF"/>
</svg>
