<svg width="16" height="15" viewBox="0 0 16 15" fill="none" xmlns="http://www.w3.org/2000/svg">
<path d="M8.00021 14.2865C7.77738 14.2861 7.55982 14.2187 7.37576 14.0931C4.64687 12.2413 3.46465 10.9702 2.8128 10.1761C1.42465 8.48349 0.759467 6.74646 0.778727 4.86424C0.800208 2.7072 2.53058 0.953125 4.63502 0.953125C6.16613 0.953125 7.22613 1.81535 7.84317 2.53312C7.86271 2.55571 7.88688 2.57382 7.91404 2.58624C7.9412 2.59865 7.97072 2.60508 8.00058 2.60508C8.03044 2.60508 8.05996 2.59865 8.08712 2.58624C8.11428 2.57382 8.13845 2.55571 8.15799 2.53312C8.77502 1.81461 9.83502 0.953125 11.3654 0.953125C13.4706 0.953125 15.2009 2.7072 15.2224 4.86424C15.2417 6.74646 14.5758 8.48423 13.1876 10.1768C12.5358 10.9709 11.3543 12.2413 8.62539 14.0931C8.44134 14.2187 8.22377 14.2861 8.00095 14.2865H8.00021Z" fill="#BFBFBF"/>
</svg>
