<svg width="14" height="13" viewBox="0 0 14 13" fill="none" xmlns="http://www.w3.org/2000/svg">
<path d="M7.29986 12.0729C7.10489 12.0726 6.91452 12.0136 6.75348 11.9037C4.3657 10.2834 3.33125 9.17116 2.76088 8.47634C1.54625 6.99532 0.964217 5.47542 0.981068 3.82847C0.999865 1.94106 2.51394 0.40625 4.35533 0.40625C5.69505 0.40625 6.62255 1.16069 7.16246 1.78875C7.17955 1.80851 7.2007 1.82436 7.22447 1.83522C7.24823 1.84609 7.27406 1.85171 7.30019 1.85171C7.32632 1.85171 7.35214 1.84609 7.37591 1.83522C7.39967 1.82436 7.42082 1.80851 7.43792 1.78875C7.97783 1.16005 8.90533 0.40625 10.2444 0.40625C12.0864 0.40625 13.6005 1.94106 13.6193 3.82847C13.6362 5.47542 13.0535 6.99597 11.8388 8.47699C11.2685 9.17181 10.2347 10.2834 7.8469 11.9037C7.68585 12.0136 7.49549 12.0726 7.30051 12.0729H7.29986Z" fill="white"/>
</svg>
