<svg width="11" height="15" viewBox="0 0 11 15" fill="none" xmlns="http://www.w3.org/2000/svg">
<g filter="url(#filter0_d_4315_8462)">
<path d="M4.19995 1.98438C4.19995 2.24959 4.30531 2.50395 4.49284 2.69148C4.68038 2.87902 4.93473 2.98438 5.19995 2.98438C5.46517 2.98438 5.71952 2.87902 5.90706 2.69148C6.09459 2.50395 6.19995 2.24959 6.19995 1.98438C6.19995 1.71916 6.09459 1.4648 5.90706 1.27727C5.71952 1.08973 5.46517 0.984375 5.19995 0.984375C4.93473 0.984375 4.68038 1.08973 4.49284 1.27727C4.30531 1.4648 4.19995 1.71916 4.19995 1.98438ZM4.19995 6.98438C4.19995 7.24959 4.30531 7.50395 4.49284 7.69148C4.68038 7.87902 4.93473 7.98438 5.19995 7.98438C5.46517 7.98438 5.71952 7.87902 5.90706 7.69148C6.09459 7.50395 6.19995 7.24959 6.19995 6.98438C6.19995 6.71916 6.09459 6.4648 5.90706 6.27727C5.71952 6.08973 5.46517 5.98438 5.19995 5.98438C4.93473 5.98438 4.68038 6.08973 4.49284 6.27727C4.30531 6.4648 4.19995 6.71916 4.19995 6.98438ZM4.19995 11.9844C4.19995 12.2496 4.30531 12.5039 4.49284 12.6915C4.68038 12.879 4.93473 12.9844 5.19995 12.9844C5.46517 12.9844 5.71952 12.879 5.90706 12.6915C6.09459 12.5039 6.19995 12.2496 6.19995 11.9844C6.19995 11.7192 6.09459 11.4648 5.90706 11.2773C5.71952 11.0897 5.46517 10.9844 5.19995 10.9844C4.93473 10.9844 4.68038 11.0897 4.49284 11.2773C4.30531 11.4648 4.19995 11.7192 4.19995 11.9844Z" fill="white"/>
</g>
<defs>
<filter id="filter0_d_4315_8462" x="0.199951" y="0.984375" width="10" height="20" filterUnits="userSpaceOnUse" color-interpolation-filters="sRGB">
<feFlood flood-opacity="0" result="BackgroundImageFix"/>
<feColorMatrix in="SourceAlpha" type="matrix" values="0 0 0 0 0 0 0 0 0 0 0 0 0 0 0 0 0 0 127 0" result="hardAlpha"/>
<feOffset dy="4"/>
<feGaussianBlur stdDeviation="2"/>
<feComposite in2="hardAlpha" operator="out"/>
<feColorMatrix type="matrix" values="0 0 0 0 0 0 0 0 0 0 0 0 0 0 0 0 0 0 0.25 0"/>
<feBlend mode="normal" in2="BackgroundImageFix" result="effect1_dropShadow_4315_8462"/>
<feBlend mode="normal" in="SourceGraphic" in2="effect1_dropShadow_4315_8462" result="shape"/>
</filter>
</defs>
</svg>
