<svg width="14" height="16" viewBox="0 0 14 16" fill="none" xmlns="http://www.w3.org/2000/svg">
<path d="M2.03186 15.0505C1.78467 15.0505 1.54093 14.985 1.32561 14.8619C1.08418 14.7206 0.884382 14.518 0.746444 14.2746C0.608506 14.0313 0.537328 13.7558 0.540118 13.4761V1.76784C0.540118 1.1882 0.841566 0.65679 1.32561 0.382042C1.54591 0.255415 1.79618 0.190289 2.05026 0.193471C2.30435 0.196652 2.55291 0.268025 2.76997 0.400129L12.7763 6.38947C12.9853 6.51998 13.1576 6.7015 13.2771 6.91696C13.3965 7.13243 13.4592 7.37474 13.4592 7.6211C13.4592 7.86746 13.3965 8.10978 13.2771 8.32524C13.1576 8.5407 12.9853 8.72222 12.7763 8.85273L2.76825 14.8438C2.54604 14.9781 2.29151 15.0496 2.03186 15.0505Z" fill="#BFBFBF"/>
</svg>
