<svg width="12" height="14" viewBox="0 0 12 14" fill="none" xmlns="http://www.w3.org/2000/svg">
<path d="M1.55314 13.7402C1.33685 13.7402 1.12358 13.683 0.935174 13.5752C0.723927 13.4516 0.549103 13.2743 0.428407 13.0614C0.307711 12.8484 0.24543 12.6074 0.247872 12.3626V2.11791C0.247872 1.61072 0.511639 1.14574 0.935174 0.905332C1.12794 0.794533 1.34693 0.737548 1.56925 0.740332C1.79157 0.743116 2.00906 0.805567 2.19899 0.921158L10.9546 6.16183C11.1374 6.27603 11.2882 6.43486 11.3927 6.62339C11.4972 6.81192 11.5521 7.02394 11.5521 7.23951C11.5521 7.45508 11.4972 7.6671 11.3927 7.85563C11.2882 8.04416 11.1374 8.20299 10.9546 8.31718L2.19749 13.5594C2.00306 13.6769 1.78034 13.7394 1.55314 13.7402Z" fill="white"/>
</svg>
