<svg width="10" height="14" viewBox="0 0 10 14" fill="none" xmlns="http://www.w3.org/2000/svg">
<path d="M7.86266 0.740234H2.33766C1.77739 0.740234 1.24007 0.9628 0.843903 1.35897C0.447733 1.75514 0.225167 2.29246 0.225167 2.85273V12.4548C0.222507 12.709 0.296624 12.9581 0.43782 13.1694C0.579017 13.3808 0.780719 13.5446 1.01654 13.6395C1.1776 13.7069 1.35058 13.7411 1.52516 13.7402C1.69256 13.7397 1.85819 13.706 2.01245 13.641C2.16671 13.576 2.30653 13.4811 2.42379 13.3616L4.83529 10.942C4.90564 10.8719 5.00088 10.8326 5.10016 10.8326C5.19944 10.8326 5.29468 10.8719 5.36504 10.942L7.78466 13.3616C7.96388 13.5415 8.1925 13.6642 8.44152 13.714C8.69055 13.7638 8.94876 13.7385 9.18341 13.6414C9.41806 13.5443 9.61858 13.3797 9.75953 13.1684C9.90049 12.9572 9.97554 12.7088 9.97515 12.4548V2.85273C9.97515 2.29246 9.75259 1.75514 9.35642 1.35897C8.96025 0.9628 8.42292 0.740234 7.86266 0.740234Z" fill="white"/>
</svg>
