<svg width="15" height="14" viewBox="0 0 15 14" fill="none" xmlns="http://www.w3.org/2000/svg">
<path d="M14.1564 6.1668L13.6939 1.28242C13.6705 1.0293 13.4689 0.829297 13.2158 0.804297L8.33139 0.341797H8.32514C8.27514 0.341797 8.23608 0.357422 8.20639 0.387109L0.8892 7.7043C0.874715 7.71875 0.863223 7.73592 0.855383 7.75483C0.847542 7.77373 0.843506 7.79399 0.843506 7.81445C0.843506 7.83492 0.847542 7.85518 0.855383 7.87408C0.863223 7.89298 0.874715 7.91015 0.8892 7.92461L6.57358 13.609C6.60326 13.6387 6.64233 13.6543 6.68451 13.6543C6.7267 13.6543 6.76576 13.6387 6.79545 13.609L14.1126 6.2918C14.1439 6.25899 14.1595 6.21367 14.1564 6.1668ZM6.68295 12.0402L2.45795 7.81524L8.70326 1.56992L12.5626 1.93555L12.9283 5.79492L6.68295 12.0402ZM10.1251 2.99805C9.36733 2.99805 8.75014 3.61523 8.75014 4.37305C8.75014 5.13086 9.36733 5.74805 10.1251 5.74805C10.883 5.74805 11.5001 5.13086 11.5001 4.37305C11.5001 3.61523 10.883 2.99805 10.1251 2.99805ZM10.1251 4.87305C9.84858 4.87305 9.62514 4.64961 9.62514 4.37305C9.62514 4.09648 9.84858 3.87305 10.1251 3.87305C10.4017 3.87305 10.6251 4.09648 10.6251 4.37305C10.6251 4.64961 10.4017 4.87305 10.1251 4.87305Z" fill="black" fill-opacity="0.85"/>
</svg>
