<svg width="14" height="13" fill="none" xmlns="http://www.w3.org/2000/svg"><path d="M13.172 1.024C12.869 1.136.951 5.774.833 5.827c-.262.117-.383.348-.311.596a.484.484 0 0 0 .118.205c.056.056.469.274 1.388.733l1.309.654.668 2.005c.641 1.924.672 2.009.762 2.106a.51.51 0 0 0 .432.159c.205-.037.231-.066 1.161-1.305l.885-1.18 1.563 1.561c1.699 1.695 1.62 1.628 1.87 1.607a.481.481 0 0 0 .375-.241c.032-.058.573-2.182 1.442-5.657 1.139-4.553 1.389-5.582 1.377-5.661a.528.528 0 0 0-.364-.406.488.488 0 0 0-.336.021m-.526 1.304c-.002.046-2.283 9.133-2.296 9.147-.008.008-.721-.691-1.583-1.553L7.199 8.354l1.252-1.255c1.311-1.313 1.302-1.303 1.302-1.496a.535.535 0 0 0-.29-.449.553.553 0 0 0-.421.001c-.064.029-.559.51-1.544 1.498-1.322 1.326-1.454 1.465-1.479 1.56a.565.565 0 0 0 .034.368c.018.035.133.163.255.283l.221.219-.61.813c-.335.447-.616.805-.625.796a88.273 88.273 0 0 1-.555-1.639c-.38-1.142-.557-1.644-.6-1.698-.048-.061-.261-.178-.986-.541-.725-.363-.915-.467-.878-.481 1.186-.465 10.342-4.022 10.354-4.022.01-.001.017.007.017.017" fill-rule="evenodd" fill="#000"/></svg>