<svg width="13" height="14" viewBox="0 0 13 14" fill="none" xmlns="http://www.w3.org/2000/svg">
<path d="M8.38517 10.7692V11.2404C8.38517 11.7402 8.18662 12.2196 7.83318 12.573C7.47975 12.9264 7.00039 13.125 6.50056 13.125C6.00073 13.125 5.52137 12.9264 5.16793 12.573C4.8145 12.2196 4.61594 11.7402 4.61594 11.2404V10.7692M11.5558 9.80996C10.7995 8.88462 10.2661 8.41346 10.2661 5.86169C10.2661 3.52477 9.07252 2.69303 8.09064 2.28846C8.02276 2.26006 7.96162 2.2177 7.91118 2.16412C7.86075 2.11055 7.82215 2.04696 7.79789 1.9775C7.62513 1.39138 7.14267 0.875 6.50065 0.875C5.85862 0.875 5.37553 1.39201 5.20466 1.97813C5.18061 2.04763 5.14208 2.11123 5.09161 2.16473C5.04115 2.21823 4.9799 2.2604 4.91192 2.28846C3.92878 2.69365 2.73644 3.52288 2.73644 5.86169C2.73519 8.41346 2.20121 8.88462 1.44485 9.80996C1.13138 10.1932 1.4059 10.7692 1.9537 10.7692H11.0501C11.5948 10.7692 11.8674 10.1913 11.5558 9.80996Z" stroke="black" stroke-linecap="round" stroke-linejoin="round"/>
</svg>
